/* XPM */
static const char *iptv__[] = {
/* columns rows colors chars-per-pixel */
"32 32 178 2",
"   c #252231",
".  c #2C2939",
"X  c #302D3F",
"o  c #322F42",
"O  c #333044",
"+  c #353246",
"@  c #363347",
"#  c #373449",
"$  c #37354A",
"%  c #3A374B",
"&  c #3B384C",
"*  c #3B394D",
"=  c #373754",
"-  c #373755",
";  c #373856",
":  c #363857",
">  c #373857",
",  c #393851",
"<  c #383852",
"1  c #34375B",
"2  c #353859",
"3  c #363858",
"4  c #363959",
"5  c #373959",
"6  c #34385A",
"7  c #35395A",
"8  c #36395A",
"9  c #373A5A",
"0  c #383B5B",
"q  c #383B5C",
"w  c #383B5D",
"e  c #393D5F",
"r  c #3A3D60",
"t  c #3B3E61",
"y  c #3D4062",
"u  c #3F4162",
"i  c #3F456D",
"p  c #3E456F",
"a  c #3E4571",
"s  c #3D4673",
"d  c #384277",
"f  c #3B4475",
"g  c #3C4575",
"h  c #3D4674",
"j  c #3C4675",
"k  c #38427A",
"l  c #38437D",
"z  c #444358",
"x  c #454358",
"c  c #464459",
"v  c #47465C",
"b  c #47475E",
"n  c #414363",
"m  c #474862",
"M  c #494B67",
"N  c #4F4F65",
"B  c #41466B",
"V  c #444869",
"C  c #545367",
"Z  c #56556A",
"A  c #56566D",
"S  c #494F78",
"D  c #585870",
"F  c #5B5C75",
"G  c #5E5E79",
"H  c #60617A",
"J  c #61627C",
"K  c #61627D",
"L  c #394580",
"P  c #3D4A83",
"I  c #3E4C85",
"U  c #3F4D87",
"Y  c #3F4E88",
"T  c #3F508E",
"R  c #40518E",
"E  c #47548C",
"W  c #405290",
"Q  c #415392",
"!  c #415495",
"~  c #415596",
"^  c #415597",
"/  c #445695",
"(  c #415698",
")  c #425698",
"_  c #425699",
"`  c #435699",
"'  c #42569A",
"]  c #42569B",
"[  c #41569D",
"{  c #42569C",
"}  c #61668C",
"|  c #71738F",
" . c #616893",
".. c #616997",
"X. c #646B97",
"o. c #686D94",
"O. c #6D7091",
"+. c #6F7190",
"@. c #727490",
"#. c #747793",
"$. c #777994",
"%. c #7A7B95",
"&. c #7D7D97",
"*. c #7F7F97",
"=. c #818197",
"-. c #828296",
";. c #848397",
":. c #868599",
">. c #88879A",
",. c #8A899A",
"<. c #8D8D9D",
"1. c #908F9F",
"2. c #9392A1",
"3. c #9493A2",
"4. c #9695A4",
"5. c #9796A5",
"6. c #9998A7",
"7. c #9B9BAB",
"8. c #9B9CAE",
"9. c #9C9CB1",
"0. c #9A9DB6",
"q. c #979DBF",
"w. c #999DBA",
"e. c #A4A6BC",
"r. c #A6A8BB",
"t. c #AAA9B9",
"y. c #ABABB8",
"u. c #A8A9BA",
"i. c #ACABB8",
"p. c #ADACB8",
"a. c #AEADB8",
"s. c #B4B4BF",
"d. c #979FC2",
"f. c #99A0C3",
"g. c #BABAC6",
"h. c #BCBDC9",
"j. c #C0C1CD",
"k. c #C4C4CD",
"l. c #C6C5CC",
"z. c #C6C5CD",
"x. c #C6C6CC",
"c. c #C7C6CC",
"v. c #C8C7CC",
"b. c #CAC9CC",
"n. c #CCCBCC",
"m. c #CDCDCC",
"M. c #CFCECD",
"N. c #D0CFCD",
"B. c #D1D0CD",
"V. c #D2D1CE",
"C. c #D4D2CF",
"Z. c #D5D3CF",
"A. c #D6D4D0",
"S. c #D7D5D1",
"D. c #D8D7D3",
"F. c #D8D7D5",
"G. c #DADAD8",
"H. c gainsboro",
"J. c #DDDCDE",
"K. c #E2E3E6",
"L. c #E4E4E6",
"P. c #E7E6E9",
"I. c #E8E7E9",
"U. c #E9E8EB",
"Y. c #EAE9EC",
"T. c #EBEBEE",
"R. c #ECEBEE",
"E. c #EDECEF",
"W. c #EEEEF0",
"Q. c #EFEFF1",
"!. c #F0F0F2",
"~. c #F2F2F4",
"^. c #F8F8F8",
"/. c gray98",
"(. c #FBFBFB",
"). c gray99",
"_. c #FEFEFD",
"`. c None",
/* pixels */
"`.`.`.`.v v C v * * * & * z x c z z * * % + o X . X v v v `.`.`.",
"`.`.v @ Z #.1.7.s.k.Z.G.K.U.T.W.Q.W.R.Y.L.J.A.k.s.7.<.@.N . `.`.",
"`.v . t.T.!.~.!.Q.E.Y.U.I.P.P.P.P.P.P.P.I.U.Y.E.Q.!.~.!.R.7.  `.",
"v * J J.v.c.z.z.l.z.c.c.c.c.c.c.c.c.c.c.c.c.c.l.l.z.z.c.b.J.Z v ",
"v o 6.s.i.p.p.i.u.0.0.0.r.y.e.0.9.u.a.a.a.p.p.p.p.p.p.p.i.s.,.* ",
"v * 2.5.1.6.1.*.0.l.n.Z.A.C.N.n.h.e.>.:.3.5.5.5.5.4.4.4.4.6.<.x ",
"v * -.&.g.V.n.>.$.D.G.C.m.M.Z.G.H.G.B.a.%.@.-.;.;.-.-.-.-.;.*., ",
"Z # | 8.D.m.C.x. .*.*.O.o.o.+.=.0.j.D.D.n.4. .| | | | | | @.+.* ",
"c o H r.B.b.n.m.} K K K K K K K G F $.g.S.S.r.E K K K K J K F + ",
"c X M o.S.V.D.0.S D D D D D D D D D D S <.V.S.a.I A D D D D m O ",
"* O ; y G 8.&.a n n n n n n n n n n n n u } m.S.0.k n u u u ; + ",
"$ # 0 > - 5 5 > 8 6 3 2 8 4 4 8 7 8 4 4 4 1 } N.S.#.1 - - 9 0 @ ",
"+ = q 0 9 9 9 9 9 9 9 5 8 9 9 8 4 8 9 9 8 9 1 %.D.b.d 9 5 0 0 # ",
"O = 0 9 8 4 9 4 8 4 9 9 9 9 9 4 4 4 9 9 9 9 9 1 g.L.<.1 8 0 0 $ ",
"O ; q 9 9 9 5 4 4 9 9 9 9 9 9 4 4 4 9 9 9 9 9 6  .L.F.d 9 9 0 = ",
"O 9 w 9 9 5 5 5 4 9 9 9 9 9 9 4 4 4 9 9 9 9 9 4 1 B.^.X.9 9 w = ",
"+ 9 w 9 0 9 9 9 4 4 9 9 9 9 9 4 4 4 9 9 9 9 9 4 1 q._.r.6 9 w = ",
"+ 9 w 0 9 0 9 9 9 9 9 9 9 9 9 4 4 4 9 9 9 9 9 9 8 .._.J.7 9 w ; ",
"# 0 t e w w q w w 9 9 9 9 9 9 4 4 4 9 9 5 9 9 0 w T _.!.k e t > ",
"* 0 y y y r e e w q q w w e w q q q e r 9 w q q w l /.).L y y > ",
"z 0 a I U P h h j h h j h h h g g g h h h j h s h l / ..T I p > ",
"v : Y { ) ^ ~ ! Q Q W W W Q Q R W W Q Q W W W Q ~ X.w...^ ] U ; ",
"v > R ] ) ) ) ) ) ) ) ) ) ) ) ) ) ) ) ) ) ) ) ( d._._._...{ Y < ",
"v = Y ] ) ) ) ) ) ) ) ) ) ) ) ) ) ) ) ) ) ) ) ../.(./._.s.] P , ",
"v @ Y ] ) ) ) ) ) ) ) ) ) ) ) ) ) ) ) ) ) ) ) >./././._.j.) h , ",
"v # P ] ) ) ) ) ) ) ) ) ) ) ) ) ) ) ) ) ) ) ) [ K._._._.d.~ s , ",
"v # s ' _ ) ) ) ) ) ) ) ) ) ) ) ) ) ) ) ) ) ) ^ [ d.f.d.[ ) i z ",
"v * t ~ ' ) ) ) ) ) ) ) ) ) ) ) ) ) ) ) ) ) ) ) ) ) ) ) ] Q r z ",
"`.v O Y ] ] ] ' ' _ _ _ ) ) ) ) ) ) ) ) ) _ _ _ ' ' ] ] ' I + `.",
"`.`.$ 3 f P U T Q ~ _ _ ' ] ] ] ] ] ] ] ' ' ` ~ ~ W Y I a > `.`.",
"`.`.`.v N v b m n V B i p a h h h h h a p i y y t 0 ; % # `.`.`.",
"`.`.`.`.`.`.`.`.`.`.`.`.`.`.`.`.`.`.`.`.`.`.`.`.`.`.`.`.`.`.`.`."
};
